<svg width="144" height="36" viewBox="0 0 144 36" fill="none" xmlns="http://www.w3.org/2000/svg">
<g clip-path="url(#clip0_8_93)">
<path d="M17.7982 21.6674L12.971 7.33301L6.59602 26.2367H0L9.35972 0.368493H16.6559L26.0156 26.2367H19.3459L17.7982 21.6674Z" fill="white"/>
<path d="M34.5381 8.33325V26.2367H28.2369V8.33325H34.5381Z" fill="white"/>
<path d="M63.8575 26.4946C61.9659 26.4946 60.2708 26.1876 58.7723 25.5734C57.2738 24.9593 56.07 24.0503 55.1611 22.8466C54.2767 21.6428 53.8099 20.1934 53.7608 18.4983H60.4674C60.5656 19.4564 60.8973 20.1934 61.4623 20.7093C62.0273 21.2006 62.7643 21.4463 63.6733 21.4463C64.6068 21.4463 65.3438 21.2375 65.8842 20.8199C66.4247 20.3777 66.6949 19.7758 66.6949 19.0142C66.6949 18.3755 66.4738 17.8473 66.0316 17.4297C65.614 17.0121 65.0858 16.6682 64.4471 16.3979C63.8329 16.1277 62.9486 15.8206 61.7939 15.4767C60.1234 14.9608 58.76 14.4449 57.7037 13.929C56.6473 13.4131 55.7384 12.6516 54.9768 11.6444C54.2153 10.6372 53.8345 9.32287 53.8345 7.7015C53.8345 5.29402 54.7066 3.4147 56.4508 2.06356C58.195 0.687853 60.4674 0 63.2679 0C66.1176 0 68.4145 0.687853 70.1587 2.06356C71.9029 3.4147 72.8365 5.3063 72.9593 7.73835H66.1422C66.093 6.9031 65.786 6.2521 65.2209 5.78534C64.6559 5.29402 63.9312 5.04835 63.0468 5.04835C62.2853 5.04835 61.6711 5.25717 61.2044 5.67479C60.7376 6.06785 60.5042 6.64516 60.5042 7.40671C60.5042 8.24196 60.8973 8.89296 61.6834 9.35972C62.4695 9.82648 63.6978 10.3301 65.3683 10.8705C67.0388 11.4356 68.39 11.976 69.4218 12.4919C70.4781 13.0078 71.3871 13.7571 72.1486 14.7397C72.9102 15.7224 73.2909 16.9875 73.2909 18.5352C73.2909 20.0092 72.9102 21.348 72.1486 22.5518C71.4116 23.7555 70.3307 24.7136 68.9059 25.426C67.481 26.1384 65.7982 26.4946 63.8575 26.4946Z" fill="white"/>
<path d="M88.184 5.4537C90.5915 5.4537 92.5077 6.23981 93.9325 7.81205C95.3819 9.35972 96.1066 11.497 96.1066 14.2238V26.2367H89.8423V15.0714C89.8423 13.6957 89.486 12.627 88.7736 11.8655C88.0612 11.1039 87.1031 10.7231 85.8994 10.7231C84.6956 10.7231 83.7375 11.1039 83.0251 11.8655C82.3127 12.627 81.9565 13.6957 81.9565 15.0714V26.2367H75.6553V5.67479H81.9565V8.40164C82.5952 7.49269 83.455 6.78027 84.5359 6.26438C85.6169 5.72392 86.8329 5.4537 88.184 5.4537Z" fill="white"/>
<path d="M98.1621 15.9189C98.1621 13.8062 98.5552 11.9515 99.3413 10.3547C100.152 8.75785 101.245 7.52954 102.621 6.66972C103.997 5.80991 105.532 5.38 107.227 5.38C108.676 5.38 109.942 5.67479 111.022 6.26438C112.128 6.85397 112.976 7.6278 113.565 8.58589V5.67479H119.866V26.2367H113.565V23.3256C112.951 24.2837 112.091 25.0575 110.986 25.6471C109.905 26.2367 108.64 26.5315 107.19 26.5315C105.52 26.5315 103.997 26.1016 102.621 25.2418C101.245 24.3574 100.152 23.1168 99.3413 21.52C98.5552 19.8986 98.1621 18.0316 98.1621 15.9189ZM113.565 15.9557C113.565 14.3835 113.123 13.1429 112.239 12.234C111.379 11.325 110.322 10.8705 109.069 10.8705C107.817 10.8705 106.748 11.325 105.864 12.234C105.004 13.1184 104.574 14.3467 104.574 15.9189C104.574 17.4911 105.004 18.744 105.864 19.6775C106.748 20.5865 107.817 21.041 109.069 21.041C110.322 21.041 111.379 20.5865 112.239 19.6775C113.123 18.7686 113.565 17.528 113.565 15.9557Z" fill="white"/>
<path d="M128.77 8.58589C129.384 7.6278 130.231 6.85397 131.312 6.26438C132.393 5.67479 133.658 5.38 135.108 5.38C136.803 5.38 138.338 5.80991 139.714 6.66972C141.09 7.52954 142.171 8.75785 142.957 10.3547C143.767 11.9515 144.173 13.8062 144.173 15.9189C144.173 18.0316 143.767 19.8986 142.957 21.52C142.171 23.1168 141.09 24.3574 139.714 25.2418C138.338 26.1016 136.803 26.5315 135.108 26.5315C133.683 26.5315 132.418 26.2367 131.312 25.6471C130.231 25.0575 129.384 24.296 128.77 23.3625V36.0386H122.468V5.67479H128.77V8.58589ZM137.761 15.9189C137.761 14.3467 137.319 13.1184 136.434 12.234C135.574 11.325 134.506 10.8705 133.228 10.8705C131.976 10.8705 130.907 11.325 130.023 12.234C129.163 13.1429 128.733 14.3835 128.733 15.9557C128.733 17.528 129.163 18.7686 130.023 19.6775C130.907 20.5865 131.976 21.041 133.228 21.041C134.481 21.041 135.55 20.5865 136.434 19.6775C137.319 18.744 137.761 17.4911 137.761 15.9189Z" fill="white"/>
<path d="M43.8428 8.33325V26.2367H37.5415V8.33325H43.8428Z" fill="white"/>
<circle cx="31.5335" cy="3.41829" r="3.32308" fill="white"/>
<circle cx="48.3704" cy="10.9505" r="3.32308" fill="white"/>
<circle cx="12.9243" cy="21.1414" r="3.32308" fill="white"/>
</g>
<defs>
<clipPath id="clip0_8_93">
<rect width="144" height="35.8892" fill="white"/>
</clipPath>
</defs>
</svg>
